<?xml version="1.0" encoding="utf-8"?>
<!-- Generator: Adobe Illustrator 19.1.0, SVG Export Plug-In . SVG Version: 6.00 Build 0)  -->
<svg version="1.1" id="Layer_2" xmlns="http://www.w3.org/2000/svg" xmlns:xlink="http://www.w3.org/1999/xlink" x="0px" y="0px"
	 viewBox="-5 97 600 600" style="enable-background:new -5 97 600 600;" xml:space="preserve">
<style type="text/css">
	.st0{fill:none;}
	.st1{fill:#FFFFFF;}
	.st2{fill:none;stroke:#FFFFFF;stroke-width:24;stroke-miterlimit:10;}
</style>
<rect x="-5" y="97" class="st0" width="600" height="600"/>
<g>
	
		<image style="overflow:visible;opacity:0.5;" width="131" height="131" xlink:href="9AB4484EF22DF7BC.png"  transform="matrix(1 0 0 1 229 331)">
	</image>
	<g>
		<circle class="st1" cx="294.5" cy="396.6" r="50.2"/>
	</g>
</g>
<g>
	
		<image style="overflow:visible;opacity:0.5;" width="593" height="260" xlink:href="9AB4484EF22DF7BD.png"  transform="matrix(1 0 0 1 -2 267)">
	</image>
	<g>
		<path class="st2" d="M294.5,294.6c67.4,0,129.9,9.7,177.1,25.9c56.8,19.6,91.8,49.2,91.8,76.1c0,28-37,59.5-98.1,79.7
			c-46.2,15.3-106.9,23.3-170.8,23.3c-65.6,0-127.6-7.5-174.3-23.4c-59-20.2-94.6-52.1-94.6-79.6C25.6,370,59,340.6,115,321
			C162.4,304.5,226.5,294.6,294.5,294.6z"/>
	</g>
</g>
<g>
	
		<image style="overflow:visible;opacity:0.5;" width="375" height="530" xlink:href="9AB4484EF22DF7BB.png"  transform="matrix(1 0 0 1 107 132)">
	</image>
	<g>
		<path class="st2" d="M205.7,345.9c33.6-58.3,73.3-107.7,110.9-140.5c45.4-39.5,88.5-54.9,111.8-41.5c24.2,14,33,61.8,20.1,124.8
			c-9.8,47.6-33.2,104.2-65.2,159.6c-32.7,56.8-70.2,106.8-107.4,139.3c-47,41.1-92.4,55.9-116.2,42.2
			c-23.1-13.3-31.9-56.9-20.8-115.2C148.3,465.3,171.8,404.8,205.7,345.9z"/>
	</g>
</g>
<g>
	
		<image style="overflow:visible;opacity:0.5;" width="376" height="531" xlink:href="9AB4484EF22DF7C4.png"  transform="matrix(1 0 0 1 107 132)">
	</image>
	<g>
		<path class="st2" d="M205.8,448.5c-33.7-58.3-56.7-117.3-66.3-166.3c-11.5-59-3.4-104.1,19.9-117.6c24.2-14,70.1,2.2,118.1,44.9
			c36.4,32.3,73.7,80.8,105.7,136.2c32.8,56.7,57.5,114.2,67,162.6c12.1,61.2,2.3,108-21.5,121.7c-23.1,13.3-65.2-0.8-110.2-39.5
			C280.6,557.9,239.9,507.3,205.8,448.5z"/>
	</g>
</g>
</svg>
